<svg xmlns="http://www.w3.org/2000/svg" xmlns:xlink="http://www.w3.org/1999/xlink" width="500" zoomAndPan="magnify" viewBox="0 0 375 374.999991" height="500" preserveAspectRatio="xMidYMid meet" version="1.0"><defs><g/><clipPath id="56a6a012c7"><path d="M 179.96875 216.136719 L 195.085938 216.136719 L 195.085938 221.421875 L 179.96875 221.421875 Z M 179.96875 216.136719 " clip-rule="nonzero"/></clipPath><clipPath id="1a0c33cfcb"><path d="M 186 88.671875 L 189 88.671875 L 189 100 L 186 100 Z M 186 88.671875 " clip-rule="nonzero"/></clipPath><clipPath id="2303e67838"><path d="M 126.632812 148 L 138 148 L 138 151 L 126.632812 151 Z M 126.632812 148 " clip-rule="nonzero"/></clipPath><clipPath id="39a3f37c45"><path d="M 237.347656 148.109375 L 248.132812 148.109375 L 248.132812 150.859375 L 237.347656 150.859375 Z M 237.347656 148.109375 " clip-rule="nonzero"/></clipPath></defs><rect x="-37.5" width="450" fill="#ffffff" y="-37.499999" height="449.999989" fill-opacity="1"/><rect x="-37.5" width="450" fill="#ffffff" y="-37.499999" height="449.999989" fill-opacity="1"/><path fill="#eb8686" d="M 176.574219 108.757812 C 172.046875 108.757812 168.230469 111.945312 167.320312 116.25 C 166.753906 116.167969 166.1875 116.128906 165.621094 116.128906 C 159.128906 116.128906 153.851562 121.40625 153.851562 127.894531 C 153.851562 128.441406 153.890625 128.988281 153.96875 129.53125 C 150.285156 130.871094 147.71875 134.4375 147.71875 138.433594 C 147.71875 140.425781 148.34375 142.347656 149.5 143.949219 C 149.496094 143.953125 149.496094 143.957031 149.492188 143.960938 C 149.304688 144.191406 149.125 144.429688 148.957031 144.671875 C 148.925781 144.71875 148.890625 144.765625 148.855469 144.816406 C 148.699219 145.050781 148.550781 145.285156 148.410156 145.527344 C 148.375 145.585938 148.34375 145.648438 148.308594 145.707031 C 148.175781 145.949219 148.046875 146.199219 147.929688 146.449219 C 147.90625 146.503906 147.882812 146.558594 147.859375 146.613281 C 147.746094 146.863281 147.640625 147.117188 147.546875 147.375 C 147.539062 147.40625 147.527344 147.433594 147.515625 147.460938 C 147.421875 147.730469 147.335938 148.007812 147.261719 148.285156 C 147.246094 148.339844 147.230469 148.394531 147.214844 148.449219 C 147.144531 148.722656 147.085938 149.003906 147.035156 149.285156 C 147.023438 149.34375 147.015625 149.402344 147.003906 149.464844 C 146.957031 149.75 146.917969 150.035156 146.890625 150.324219 C 146.886719 150.375 146.886719 150.421875 146.882812 150.46875 C 146.859375 150.777344 146.84375 151.085938 146.84375 151.398438 C 146.84375 151.402344 146.84375 151.402344 146.84375 151.402344 C 146.84375 155.3125 148.769531 158.917969 151.949219 161.101562 C 151.035156 162.800781 150.554688 164.699219 150.554688 166.65625 C 150.554688 173.285156 156.070312 178.664062 162.734375 178.414062 C 163.730469 183.476562 167.976562 187.382812 173.203125 187.855469 C 173.234375 187.859375 173.261719 187.863281 173.292969 187.863281 C 173.617188 187.890625 173.945312 187.910156 174.28125 187.910156 C 180.765625 187.910156 186.046875 182.628906 186.046875 176.140625 L 186.046875 118.226562 C 186.046875 113.003906 181.796875 108.757812 176.574219 108.757812 " fill-opacity="1" fill-rule="nonzero"/><path fill="#000000" d="M 163.832031 175.761719 C 164.117188 175.761719 164.398438 175.859375 164.625 176.039062 C 164.898438 176.257812 165.070312 176.578125 165.101562 176.929688 C 165.503906 181.65625 169.53125 185.355469 174.28125 185.355469 C 179.359375 185.355469 183.492188 181.222656 183.492188 176.140625 L 183.492188 118.226562 C 183.492188 114.410156 180.390625 111.308594 176.574219 111.308594 C 172.902344 111.308594 169.875 114.179688 169.675781 117.847656 C 169.652344 118.234375 169.460938 118.589844 169.144531 118.8125 C 168.832031 119.039062 168.433594 119.113281 168.0625 119.011719 C 167.265625 118.792969 166.441406 118.679688 165.621094 118.679688 C 160.539062 118.679688 156.40625 122.8125 156.40625 127.894531 C 156.40625 128.644531 156.496094 129.394531 156.679688 130.125 C 156.761719 130.460938 156.707031 130.8125 156.523438 131.105469 C 156.339844 131.398438 156.050781 131.605469 155.710938 131.679688 C 152.558594 132.363281 150.269531 135.207031 150.269531 138.433594 C 150.269531 140.175781 150.925781 141.839844 152.117188 143.125 C 152.582031 143.628906 152.566406 144.410156 152.085938 144.894531 C 150.351562 146.632812 149.394531 148.945312 149.394531 151.398438 C 149.394531 154.820312 151.273438 157.941406 154.304688 159.546875 C 154.625 159.714844 154.859375 160.015625 154.945312 160.371094 C 155.03125 160.726562 154.964844 161.101562 154.753906 161.402344 C 153.675781 162.949219 153.105469 164.769531 153.105469 166.65625 C 153.105469 171.738281 157.238281 175.871094 162.320312 175.871094 C 162.753906 175.871094 163.203125 175.839844 163.648438 175.773438 C 163.710938 175.765625 163.769531 175.761719 163.832031 175.761719 Z M 174.28125 187.910156 C 168.648438 187.910156 163.808594 183.832031 162.738281 178.414062 C 156.074219 178.664062 150.554688 173.285156 150.554688 166.65625 C 150.554688 164.699219 151.035156 162.800781 151.949219 161.101562 C 148.769531 158.917969 146.84375 155.3125 146.84375 151.398438 C 146.84375 148.652344 147.777344 146.046875 149.5 143.949219 C 148.34375 142.347656 147.71875 140.425781 147.71875 138.433594 C 147.71875 134.4375 150.285156 130.871094 153.96875 129.53125 C 153.890625 128.988281 153.851562 128.441406 153.851562 127.894531 C 153.851562 121.40625 159.128906 116.128906 165.621094 116.128906 C 166.1875 116.128906 166.757812 116.167969 167.320312 116.25 C 168.230469 111.949219 172.046875 108.757812 176.574219 108.757812 C 181.796875 108.757812 186.046875 113.003906 186.046875 118.226562 L 186.046875 176.140625 C 186.046875 182.628906 180.765625 187.910156 174.28125 187.910156 " fill-opacity="1" fill-rule="nonzero"/><path fill="#000000" d="M 176.574219 127.699219 C 171.351562 127.699219 167.101562 123.449219 167.101562 118.226562 C 167.101562 117.523438 167.671875 116.953125 168.378906 116.953125 C 169.082031 116.953125 169.652344 117.523438 169.652344 118.226562 C 169.652344 122.042969 172.757812 125.148438 176.574219 125.148438 C 177.277344 125.148438 177.851562 125.71875 177.851562 126.421875 C 177.851562 127.128906 177.277344 127.699219 176.574219 127.699219 " fill-opacity="1" fill-rule="nonzero"/><path fill="#000000" d="M 174.28125 187.910156 C 167.789062 187.910156 162.511719 182.628906 162.511719 176.140625 C 162.511719 169.65625 167.789062 164.375 174.28125 164.375 C 174.984375 164.375 175.554688 164.949219 175.554688 165.652344 C 175.554688 166.355469 174.984375 166.929688 174.28125 166.929688 C 169.199219 166.929688 165.066406 171.0625 165.066406 176.140625 C 165.066406 181.222656 169.199219 185.355469 174.28125 185.355469 C 174.984375 185.355469 175.554688 185.925781 175.554688 186.632812 C 175.554688 187.339844 174.984375 187.910156 174.28125 187.910156 " fill-opacity="1" fill-rule="nonzero"/><path fill="#000000" d="M 169.097656 152.675781 C 168.390625 152.675781 167.820312 152.105469 167.820312 151.402344 C 167.820312 148.246094 166.234375 145.34375 163.578125 143.640625 C 162.09375 142.691406 160.375 142.1875 158.609375 142.1875 C 156.140625 142.1875 153.820312 143.148438 152.078125 144.898438 C 150.347656 146.640625 149.394531 148.949219 149.394531 151.402344 C 149.394531 152.105469 148.824219 152.675781 148.117188 152.675781 C 147.414062 152.675781 146.84375 152.105469 146.84375 151.402344 C 146.84375 148.269531 148.058594 145.324219 150.269531 143.097656 C 152.492188 140.863281 155.457031 139.632812 158.609375 139.632812 C 160.867188 139.632812 163.058594 140.277344 164.957031 141.492188 C 168.347656 143.667969 170.375 147.371094 170.375 151.402344 C 170.375 152.105469 169.800781 152.675781 169.097656 152.675781 " fill-opacity="1" fill-rule="nonzero"/><path fill="#000000" d="M 179.503906 206.367188 L 179.503906 207.269531 C 179.503906 207.660156 179.824219 207.980469 180.214844 207.980469 L 194.777344 207.980469 C 195.167969 207.980469 195.488281 207.660156 195.488281 207.269531 L 195.488281 206.367188 Z M 194.777344 210.285156 L 180.214844 210.285156 C 178.554688 210.285156 177.199219 208.929688 177.199219 207.269531 L 177.199219 206.199219 C 177.199219 205.023438 178.160156 204.0625 179.335938 204.0625 L 195.65625 204.0625 C 196.835938 204.0625 197.792969 205.023438 197.792969 206.199219 L 197.792969 207.269531 C 197.792969 208.929688 196.441406 210.285156 194.777344 210.285156 " fill-opacity="1" fill-rule="nonzero"/><path fill="#000000" d="M 179.503906 210.285156 L 179.503906 211.183594 C 179.503906 211.574219 179.824219 211.894531 180.214844 211.894531 L 194.777344 211.894531 C 195.167969 211.894531 195.488281 211.574219 195.488281 211.183594 L 195.488281 210.285156 Z M 194.777344 214.199219 L 180.214844 214.199219 C 178.554688 214.199219 177.199219 212.84375 177.199219 211.183594 L 177.199219 210.117188 C 177.199219 208.9375 178.160156 207.980469 179.335938 207.980469 L 195.65625 207.980469 C 196.835938 207.980469 197.792969 208.9375 197.792969 210.117188 L 197.792969 211.183594 C 197.792969 212.84375 196.441406 214.199219 194.777344 214.199219 " fill-opacity="1" fill-rule="nonzero"/><path fill="#000000" d="M 179.503906 214.199219 L 179.503906 215.101562 C 179.503906 215.492188 179.824219 215.808594 180.214844 215.808594 L 194.777344 215.808594 C 195.167969 215.808594 195.488281 215.492188 195.488281 215.101562 L 195.488281 214.199219 Z M 194.777344 218.113281 L 180.214844 218.113281 C 178.554688 218.113281 177.199219 216.761719 177.199219 215.101562 L 177.199219 214.03125 C 177.199219 212.855469 178.160156 211.894531 179.335938 211.894531 L 195.65625 211.894531 C 196.835938 211.894531 197.792969 212.855469 197.792969 214.03125 L 197.792969 215.101562 C 197.792969 216.761719 196.441406 218.113281 194.777344 218.113281 " fill-opacity="1" fill-rule="nonzero"/><g clip-path="url(#56a6a012c7)"><path fill="#000000" d="M 190.773438 221.683594 L 184.21875 221.683594 C 183.277344 221.683594 182.402344 221.214844 181.878906 220.429688 L 179.992188 217.601562 L 181.910156 216.324219 L 183.792969 219.152344 C 183.890625 219.296875 184.046875 219.378906 184.21875 219.378906 L 190.773438 219.378906 C 190.945312 219.378906 191.105469 219.296875 191.199219 219.152344 L 193.085938 216.324219 L 195.003906 217.601562 L 193.117188 220.429688 C 192.59375 221.214844 191.71875 221.683594 190.773438 221.683594 " fill-opacity="1" fill-rule="nonzero"/></g><path fill="#000000" d="M 184.828125 206.367188 L 178.363281 206.367188 C 178.035156 206.367188 177.722656 206.226562 177.503906 205.980469 C 175.027344 203.191406 174.210938 199.769531 173.421875 196.460938 C 172.398438 192.175781 171.433594 188.128906 167.035156 185.40625 L 168.246094 183.449219 C 173.453125 186.667969 174.578125 191.375 175.664062 195.925781 C 176.378906 198.925781 177.054688 201.773438 178.898438 204.0625 L 183.675781 204.0625 L 183.675781 178.21875 C 183.675781 177.582031 184.195312 177.0625 184.828125 177.0625 C 185.464844 177.0625 185.980469 177.582031 185.980469 178.21875 L 185.980469 205.214844 C 185.980469 205.851562 185.464844 206.367188 184.828125 206.367188 " fill-opacity="1" fill-rule="nonzero"/><path fill="#fff175" d="M 228.152344 148.949219 C 228.152344 127.394531 211.371094 109.765625 190.164062 108.390625 L 190.164062 205.214844 L 196.660156 205.214844 C 202.023438 199.175781 199.015625 189.601562 207.386719 184.429688 L 207.351562 184.429688 C 219.761719 177.46875 228.152344 164.1875 228.152344 148.949219 " fill-opacity="1" fill-rule="nonzero"/><path fill="#000000" d="M 191.316406 204.0625 L 196.125 204.0625 C 197.96875 201.773438 198.644531 198.925781 199.363281 195.925781 C 200.433594 191.429688 201.542969 186.789062 206.585938 183.570312 C 206.648438 183.515625 206.714844 183.464844 206.789062 183.421875 C 219.253906 176.433594 227 163.222656 227 148.949219 C 227 128.605469 211.421875 111.570312 191.316406 109.636719 Z M 196.660156 206.367188 L 190.164062 206.367188 C 189.527344 206.367188 189.011719 205.851562 189.011719 205.214844 L 189.011719 108.390625 C 189.011719 108.070312 189.144531 107.765625 189.375 107.550781 C 189.609375 107.332031 189.921875 107.222656 190.238281 107.242188 C 212.144531 108.660156 229.300781 126.980469 229.300781 148.949219 C 229.300781 163.980469 221.1875 177.902344 208.105469 185.328125 C 208.070312 185.355469 208.03125 185.382812 207.988281 185.40625 C 203.589844 188.128906 202.625 192.175781 201.601562 196.460938 C 200.8125 199.769531 199.996094 203.191406 197.523438 205.980469 C 197.304688 206.226562 196.988281 206.367188 196.660156 206.367188 " fill-opacity="1" fill-rule="nonzero"/><path fill="#000000" d="M 217.132812 130.324219 C 216.761719 130.324219 216.398438 130.144531 216.175781 129.8125 C 212.199219 123.875 206.605469 119.375 199.992188 116.796875 C 199.398438 116.566406 199.105469 115.894531 199.335938 115.304688 C 199.566406 114.710938 200.238281 114.417969 200.828125 114.648438 C 207.882812 117.398438 213.851562 122.199219 218.089844 128.53125 C 218.445312 129.058594 218.300781 129.773438 217.773438 130.125 C 217.578125 130.257812 217.355469 130.324219 217.132812 130.324219 " fill-opacity="1" fill-rule="nonzero"/><g clip-path="url(#1a0c33cfcb)"><path fill="#000000" d="M 187.496094 99.292969 C 186.859375 99.292969 186.34375 98.777344 186.34375 98.140625 L 186.34375 89.820312 C 186.34375 89.183594 186.859375 88.667969 187.496094 88.667969 C 188.132812 88.667969 188.648438 89.183594 188.648438 89.820312 L 188.648438 98.140625 C 188.648438 98.777344 188.132812 99.292969 187.496094 99.292969 " fill-opacity="1" fill-rule="nonzero"/></g><path fill="#000000" d="M 151.214844 114.320312 C 150.921875 114.320312 150.628906 114.207031 150.402344 113.984375 L 144.519531 108.101562 C 144.066406 107.652344 144.066406 106.921875 144.519531 106.472656 C 144.96875 106.019531 145.699219 106.019531 146.148438 106.472656 L 152.03125 112.355469 C 152.480469 112.804688 152.480469 113.53125 152.03125 113.984375 C 151.804688 114.207031 151.511719 114.320312 151.214844 114.320312 " fill-opacity="1" fill-rule="nonzero"/><g clip-path="url(#2303e67838)"><path fill="#000000" d="M 136.1875 150.601562 L 127.871094 150.601562 C 127.230469 150.601562 126.714844 150.085938 126.714844 149.449219 C 126.714844 148.8125 127.230469 148.296875 127.871094 148.296875 L 136.1875 148.296875 C 136.824219 148.296875 137.339844 148.8125 137.339844 149.449219 C 137.339844 150.085938 136.824219 150.601562 136.1875 150.601562 " fill-opacity="1" fill-rule="nonzero"/></g><path fill="#000000" d="M 145.332031 192.765625 C 145.039062 192.765625 144.742188 192.652344 144.519531 192.425781 C 144.066406 191.976562 144.066406 191.25 144.519531 190.800781 L 150.402344 184.914062 C 150.851562 184.464844 151.582031 184.464844 152.03125 184.914062 C 152.480469 185.367188 152.480469 186.09375 152.03125 186.542969 L 146.148438 192.425781 C 145.921875 192.652344 145.628906 192.765625 145.332031 192.765625 " fill-opacity="1" fill-rule="nonzero"/><path fill="#000000" d="M 229.660156 192.765625 C 229.367188 192.765625 229.070312 192.652344 228.847656 192.425781 L 222.960938 186.542969 C 222.511719 186.09375 222.511719 185.367188 222.960938 184.914062 C 223.410156 184.464844 224.140625 184.464844 224.589844 184.914062 L 230.472656 190.800781 C 230.925781 191.25 230.925781 191.976562 230.472656 192.425781 C 230.25 192.652344 229.953125 192.765625 229.660156 192.765625 " fill-opacity="1" fill-rule="nonzero"/><g clip-path="url(#39a3f37c45)"><path fill="#000000" d="M 247.125 150.601562 L 238.804688 150.601562 C 238.167969 150.601562 237.652344 150.085938 237.652344 149.449219 C 237.652344 148.8125 238.167969 148.296875 238.804688 148.296875 L 247.125 148.296875 C 247.761719 148.296875 248.277344 148.8125 248.277344 149.449219 C 248.277344 150.085938 247.761719 150.601562 247.125 150.601562 " fill-opacity="1" fill-rule="nonzero"/></g><path fill="#000000" d="M 223.777344 114.320312 C 223.480469 114.320312 223.1875 114.207031 222.960938 113.984375 C 222.511719 113.53125 222.511719 112.804688 222.960938 112.355469 L 228.847656 106.472656 C 229.292969 106.019531 230.023438 106.019531 230.472656 106.472656 C 230.925781 106.921875 230.925781 107.652344 230.472656 108.101562 L 224.589844 113.984375 C 224.367188 114.207031 224.074219 114.320312 223.777344 114.320312 " fill-opacity="1" fill-rule="nonzero"/><g fill="#000000" fill-opacity="1"><g transform="translate(45.91108, 274.748254)"><g><path d="M 3.78125 -33.375 C 3.78125 -33.664062 3.878906 -33.90625 4.078125 -34.09375 C 4.234375 -34.25 4.457031 -34.328125 4.75 -34.328125 C 4.96875 -34.328125 5.191406 -34.25 5.421875 -34.09375 C 5.609375 -33.90625 5.703125 -33.664062 5.703125 -33.375 L 5.65625 -0.625 C 5.65625 -0.363281 5.5625 -0.140625 5.375 0.046875 C 5.175781 0.234375 4.953125 0.328125 4.703125 0.328125 C 4.441406 0.328125 4.21875 0.234375 4.03125 0.046875 C 3.832031 -0.140625 3.734375 -0.363281 3.734375 -0.625 Z M 3.78125 -33.375 "/></g></g></g><g fill="#000000" fill-opacity="1"><g transform="translate(53.246343, 274.748254)"><g><path d="M 3.109375 -32.890625 C 3.109375 -33.148438 3.207031 -33.375 3.40625 -33.5625 C 3.5625 -33.757812 3.785156 -33.859375 4.078125 -33.859375 C 4.328125 -33.859375 4.550781 -33.757812 4.75 -33.5625 C 4.9375 -33.375 5.03125 -33.148438 5.03125 -32.890625 L 4.984375 -1.671875 C 5.785156 -1.640625 7.445312 -1.691406 9.96875 -1.828125 C 11.757812 -1.921875 13.269531 -1.984375 14.5 -2.015625 C 15.738281 -2.046875 16.691406 -2.046875 17.359375 -2.015625 C 17.648438 -1.953125 17.875 -1.835938 18.03125 -1.671875 C 18.1875 -1.453125 18.265625 -1.226562 18.265625 -1 C 18.203125 -0.6875 18.09375 -0.460938 17.9375 -0.328125 C 17.675781 -0.140625 17.4375 -0.0625 17.21875 -0.09375 C 16.570312 -0.125 15.65625 -0.125 14.46875 -0.09375 C 13.289062 -0.0625 11.84375 0 10.125 0.09375 C 8.550781 0.15625 7.269531 0.191406 6.28125 0.203125 C 5.289062 0.222656 4.570312 0.203125 4.125 0.140625 C 4.09375 0.171875 4.0625 0.1875 4.03125 0.1875 C 3.738281 0.1875 3.515625 0.09375 3.359375 -0.09375 C 3.160156 -0.289062 3.0625 -0.515625 3.0625 -0.765625 Z M 3.109375 -32.890625 "/></g></g></g><g fill="#000000" fill-opacity="1"><g transform="translate(73.143043, 274.748254)"><g><path d="M 3.109375 -32.890625 C 3.109375 -33.148438 3.207031 -33.375 3.40625 -33.5625 C 3.5625 -33.757812 3.785156 -33.859375 4.078125 -33.859375 C 4.328125 -33.859375 4.550781 -33.757812 4.75 -33.5625 C 4.9375 -33.375 5.03125 -33.148438 5.03125 -32.890625 L 4.984375 -1.671875 C 5.785156 -1.640625 7.445312 -1.691406 9.96875 -1.828125 C 11.757812 -1.921875 13.269531 -1.984375 14.5 -2.015625 C 15.738281 -2.046875 16.691406 -2.046875 17.359375 -2.015625 C 17.648438 -1.953125 17.875 -1.835938 18.03125 -1.671875 C 18.1875 -1.453125 18.265625 -1.226562 18.265625 -1 C 18.203125 -0.6875 18.09375 -0.460938 17.9375 -0.328125 C 17.675781 -0.140625 17.4375 -0.0625 17.21875 -0.09375 C 16.570312 -0.125 15.65625 -0.125 14.46875 -0.09375 C 13.289062 -0.0625 11.84375 0 10.125 0.09375 C 8.550781 0.15625 7.269531 0.191406 6.28125 0.203125 C 5.289062 0.222656 4.570312 0.203125 4.125 0.140625 C 4.09375 0.171875 4.0625 0.1875 4.03125 0.1875 C 3.738281 0.1875 3.515625 0.09375 3.359375 -0.09375 C 3.160156 -0.289062 3.0625 -0.515625 3.0625 -0.765625 Z M 3.109375 -32.890625 "/></g></g></g><g fill="#000000" fill-opacity="1"><g transform="translate(93.039742, 274.748254)"><g><path d="M 4.984375 -32.984375 C 5.046875 -33.273438 5.191406 -33.484375 5.421875 -33.609375 C 5.640625 -33.773438 5.863281 -33.84375 6.09375 -33.8125 C 6.375 -33.75 6.582031 -33.617188 6.71875 -33.421875 C 6.875 -33.128906 6.9375 -32.890625 6.90625 -32.703125 C 6.875 -32.484375 6.800781 -32.0625 6.6875 -31.4375 C 6.570312 -30.8125 6.4375 -29.972656 6.28125 -28.921875 C 6.125 -27.859375 5.972656 -26.90625 5.828125 -26.0625 C 5.679688 -25.21875 5.578125 -24.472656 5.515625 -23.828125 C 5.421875 -23.191406 5.320312 -22.460938 5.21875 -21.640625 C 5.125 -20.828125 5.046875 -19.910156 4.984375 -18.890625 C 4.796875 -16.878906 4.703125 -15.085938 4.703125 -13.515625 C 4.734375 -9.773438 5.289062 -6.914062 6.375 -4.9375 C 7.53125 -2.757812 9.351562 -1.640625 11.84375 -1.578125 C 14.53125 -1.546875 16.546875 -2.648438 17.890625 -4.890625 C 19.066406 -6.835938 19.785156 -9.695312 20.046875 -13.46875 C 20.203125 -15.550781 20.15625 -17.984375 19.90625 -20.765625 C 19.769531 -22.171875 19.65625 -23.382812 19.5625 -24.40625 C 19.46875 -25.425781 19.375 -26.289062 19.28125 -27 C 19.1875 -27.695312 19.066406 -28.515625 18.921875 -29.453125 C 18.773438 -30.398438 18.585938 -31.484375 18.359375 -32.703125 C 18.328125 -32.890625 18.394531 -33.128906 18.5625 -33.421875 C 18.71875 -33.617188 18.925781 -33.75 19.1875 -33.8125 C 19.375 -33.84375 19.613281 -33.773438 19.90625 -33.609375 C 20.09375 -33.453125 20.21875 -33.242188 20.28125 -32.984375 C 20.476562 -31.773438 20.644531 -30.695312 20.78125 -29.75 C 20.925781 -28.8125 21.0625 -27.988281 21.1875 -27.28125 C 21.289062 -26.582031 21.390625 -25.703125 21.484375 -24.640625 C 21.578125 -23.585938 21.6875 -22.34375 21.8125 -20.90625 C 22.070312 -18.03125 22.125 -15.503906 21.96875 -13.328125 C 21.707031 -9.234375 20.90625 -6.085938 19.5625 -3.890625 C 17.769531 -1.035156 15.195312 0.367188 11.84375 0.328125 C 8.582031 0.265625 6.1875 -1.1875 4.65625 -4.03125 C 3.46875 -6.269531 2.84375 -9.414062 2.78125 -13.46875 C 2.78125 -15.132812 2.875 -16.988281 3.0625 -19.03125 C 3.132812 -20.0625 3.21875 -21.003906 3.3125 -21.859375 C 3.40625 -22.722656 3.5 -23.476562 3.59375 -24.125 C 3.6875 -24.757812 3.804688 -25.507812 3.953125 -26.375 C 4.097656 -27.238281 4.25 -28.210938 4.40625 -29.296875 C 4.570312 -30.347656 4.703125 -31.1875 4.796875 -31.8125 C 4.890625 -32.4375 4.953125 -32.828125 4.984375 -32.984375 Z M 4.984375 -32.984375 "/></g></g></g><g fill="#000000" fill-opacity="1"><g transform="translate(116.724056, 274.748254)"><g><path d="M 4.65625 -0.765625 C 4.65625 -0.472656 4.554688 -0.25 4.359375 -0.09375 C 4.140625 0.09375 3.898438 0.1875 3.640625 0.1875 C 3.359375 0.125 3.148438 0.015625 3.015625 -0.140625 C 2.828125 -0.335938 2.734375 -0.578125 2.734375 -0.859375 C 2.828125 -3.804688 2.875 -6.078125 2.875 -7.671875 C 2.84375 -9.265625 2.796875 -11.660156 2.734375 -14.859375 C 2.640625 -18.085938 2.59375 -20.359375 2.59375 -21.671875 C 2.5625 -23.523438 2.578125 -25.128906 2.640625 -26.484375 C 2.703125 -27.847656 2.796875 -28.976562 2.921875 -29.875 C 3.046875 -30.957031 3.269531 -31.835938 3.59375 -32.515625 C 4.039062 -33.503906 4.679688 -33.96875 5.515625 -33.90625 C 6.285156 -33.90625 6.988281 -33.441406 7.625 -32.515625 C 8.039062 -31.941406 8.472656 -31.015625 8.921875 -29.734375 C 9.429688 -28.328125 10.148438 -25.65625 11.078125 -21.71875 C 11.554688 -19.769531 11.988281 -18.097656 12.375 -16.703125 C 12.757812 -15.316406 13.078125 -14.207031 13.328125 -13.375 C 14.066406 -11.238281 14.769531 -9.847656 15.4375 -9.203125 C 15.46875 -9.265625 15.503906 -9.320312 15.546875 -9.375 C 15.597656 -9.425781 15.644531 -9.484375 15.6875 -9.546875 C 15.96875 -10.085938 16.300781 -10.984375 16.6875 -12.234375 C 16.90625 -12.898438 17.210938 -13.941406 17.609375 -15.359375 C 18.015625 -16.785156 18.488281 -18.570312 19.03125 -20.71875 C 19.539062 -22.757812 19.992188 -24.507812 20.390625 -25.96875 C 20.796875 -27.425781 21.160156 -28.566406 21.484375 -29.390625 C 21.734375 -30.035156 21.960938 -30.613281 22.171875 -31.125 C 22.378906 -31.632812 22.597656 -32.066406 22.828125 -32.421875 C 23.460938 -33.441406 24.179688 -33.9375 24.984375 -33.90625 C 25.785156 -33.90625 26.394531 -33.425781 26.8125 -32.46875 C 27.09375 -31.851562 27.332031 -30.957031 27.53125 -29.78125 C 27.65625 -28.882812 27.75 -27.738281 27.8125 -26.34375 C 27.875 -24.957031 27.890625 -23.335938 27.859375 -21.484375 C 27.859375 -20.710938 27.859375 -19.75 27.859375 -18.59375 C 27.859375 -17.445312 27.84375 -16.109375 27.8125 -14.578125 C 27.78125 -13.015625 27.753906 -11.628906 27.734375 -10.421875 C 27.722656 -9.222656 27.71875 -8.210938 27.71875 -7.390625 C 27.6875 -6.554688 27.6875 -5.578125 27.71875 -4.453125 C 27.75 -3.335938 27.78125 -2.078125 27.8125 -0.671875 C 27.8125 -0.441406 27.734375 -0.21875 27.578125 0 C 27.410156 0.15625 27.1875 0.265625 26.90625 0.328125 C 26.644531 0.328125 26.40625 0.25 26.1875 0.09375 C 25.988281 -0.09375 25.890625 -0.332031 25.890625 -0.625 C 25.859375 -2.03125 25.828125 -3.289062 25.796875 -4.40625 C 25.765625 -5.53125 25.765625 -6.507812 25.796875 -7.34375 C 25.796875 -8.164062 25.800781 -9.175781 25.8125 -10.375 C 25.832031 -11.582031 25.859375 -12.96875 25.890625 -14.53125 C 25.921875 -16.09375 25.9375 -17.445312 25.9375 -18.59375 C 25.9375 -19.75 25.9375 -20.710938 25.9375 -21.484375 C 25.96875 -23.273438 25.953125 -24.84375 25.890625 -26.1875 C 25.828125 -27.53125 25.734375 -28.628906 25.609375 -29.484375 C 25.546875 -30.003906 25.472656 -30.4375 25.390625 -30.78125 C 25.304688 -31.132812 25.203125 -31.425781 25.078125 -31.65625 L 24.890625 -31.984375 C 24.796875 -31.953125 24.648438 -31.757812 24.453125 -31.40625 C 24.097656 -30.800781 23.71875 -29.921875 23.3125 -28.765625 C 22.695312 -27.109375 21.878906 -24.28125 20.859375 -20.28125 C 20.316406 -18.101562 19.851562 -16.285156 19.46875 -14.828125 C 19.082031 -13.378906 18.765625 -12.304688 18.515625 -11.609375 C 18.066406 -10.265625 17.679688 -9.269531 17.359375 -8.625 C 17.128906 -8.21875 16.890625 -7.882812 16.640625 -7.625 C 16.253906 -7.238281 15.835938 -7.0625 15.390625 -7.09375 C 15.234375 -7.09375 15.070312 -7.140625 14.90625 -7.234375 L 14.859375 -7.234375 C 13.617188 -7.972656 12.503906 -9.8125 11.515625 -12.75 C 10.929688 -14.445312 10.160156 -17.28125 9.203125 -21.25 C 8.753906 -23.195312 8.351562 -24.816406 8 -26.109375 C 7.65625 -27.398438 7.351562 -28.398438 7.09375 -29.109375 C 6.9375 -29.648438 6.757812 -30.113281 6.5625 -30.5 C 6.375 -30.882812 6.203125 -31.203125 6.046875 -31.453125 C 5.816406 -31.773438 5.640625 -31.953125 5.515625 -31.984375 C 5.421875 -31.890625 5.359375 -31.796875 5.328125 -31.703125 C 5.191406 -31.472656 5.082031 -31.179688 5 -30.828125 C 4.925781 -30.484375 4.859375 -30.085938 4.796875 -29.640625 C 4.535156 -27.941406 4.4375 -25.285156 4.5 -21.671875 C 4.5 -20.328125 4.550781 -18.039062 4.65625 -14.8125 C 4.6875 -11.582031 4.734375 -9.171875 4.796875 -7.578125 C 4.796875 -6.015625 4.75 -3.742188 4.65625 -0.765625 Z M 4.65625 -0.765625 "/></g></g></g><g fill="#000000" fill-opacity="1"><g transform="translate(146.257597, 274.748254)"><g><path d="M 3.78125 -33.375 C 3.78125 -33.664062 3.878906 -33.90625 4.078125 -34.09375 C 4.234375 -34.25 4.457031 -34.328125 4.75 -34.328125 C 4.96875 -34.328125 5.191406 -34.25 5.421875 -34.09375 C 5.609375 -33.90625 5.703125 -33.664062 5.703125 -33.375 L 5.65625 -0.625 C 5.65625 -0.363281 5.5625 -0.140625 5.375 0.046875 C 5.175781 0.234375 4.953125 0.328125 4.703125 0.328125 C 4.441406 0.328125 4.21875 0.234375 4.03125 0.046875 C 3.832031 -0.140625 3.734375 -0.363281 3.734375 -0.625 Z M 3.78125 -33.375 "/></g></g></g><g fill="#000000" fill-opacity="1"><g transform="translate(153.592856, 274.748254)"><g><path d="M 20.953125 -32.9375 C 21.015625 -33.226562 21.160156 -33.4375 21.390625 -33.5625 C 21.609375 -33.726562 21.832031 -33.796875 22.0625 -33.765625 C 22.34375 -33.691406 22.550781 -33.578125 22.6875 -33.421875 C 22.84375 -33.128906 22.90625 -32.890625 22.875 -32.703125 C 22.457031 -29.628906 22.410156 -24.691406 22.734375 -17.890625 C 22.921875 -13.921875 23.035156 -10.441406 23.078125 -7.453125 C 23.128906 -4.460938 23.09375 -1.976562 22.96875 0 C 22.96875 0.257812 22.875 0.484375 22.6875 0.671875 C 22.425781 0.828125 22.1875 0.90625 21.96875 0.90625 C 21.675781 0.84375 21.4375 0.703125 21.25 0.484375 C 19.226562 -0.765625 17.273438 -3.242188 15.390625 -6.953125 C 14.753906 -8.265625 14.066406 -9.851562 13.328125 -11.71875 C 12.597656 -13.59375 11.832031 -15.726562 11.03125 -18.125 C 9.976562 -21.226562 9.160156 -23.609375 8.578125 -25.265625 C 8.003906 -26.929688 7.671875 -27.894531 7.578125 -28.15625 C 7.035156 -29.625 6.554688 -30.644531 6.140625 -31.21875 C 5.816406 -31.695312 5.59375 -31.953125 5.46875 -31.984375 C 5.4375 -31.953125 5.390625 -31.859375 5.328125 -31.703125 C 5.191406 -31.472656 5.082031 -31.179688 5 -30.828125 C 4.925781 -30.484375 4.859375 -30.085938 4.796875 -29.640625 C 4.535156 -27.941406 4.4375 -25.285156 4.5 -21.671875 C 4.5 -20.328125 4.550781 -18.039062 4.65625 -14.8125 C 4.6875 -11.582031 4.734375 -9.171875 4.796875 -7.578125 C 4.796875 -6.015625 4.75 -3.742188 4.65625 -0.765625 C 4.65625 -0.472656 4.554688 -0.25 4.359375 -0.09375 C 4.140625 0.09375 3.898438 0.1875 3.640625 0.1875 C 3.359375 0.125 3.148438 0.015625 3.015625 -0.140625 C 2.828125 -0.335938 2.734375 -0.578125 2.734375 -0.859375 C 2.828125 -3.804688 2.875 -6.078125 2.875 -7.671875 C 2.84375 -9.265625 2.796875 -11.660156 2.734375 -14.859375 C 2.640625 -18.085938 2.59375 -20.359375 2.59375 -21.671875 C 2.5625 -23.523438 2.578125 -25.128906 2.640625 -26.484375 C 2.703125 -27.847656 2.796875 -28.976562 2.921875 -29.875 C 3.046875 -30.957031 3.269531 -31.835938 3.59375 -32.515625 C 4.039062 -33.503906 4.679688 -33.96875 5.515625 -33.90625 C 6.316406 -33.90625 7.066406 -33.359375 7.765625 -32.265625 C 8.210938 -31.535156 8.738281 -30.40625 9.34375 -28.875 C 9.570312 -28.394531 10.722656 -25.003906 12.796875 -18.703125 C 14.398438 -13.972656 15.84375 -10.34375 17.125 -7.8125 C 18.46875 -5.164062 19.804688 -3.21875 21.140625 -1.96875 C 21.210938 -3.695312 21.210938 -5.878906 21.140625 -8.515625 C 21.078125 -11.148438 20.96875 -14.242188 20.8125 -17.796875 C 20.488281 -24.734375 20.535156 -29.78125 20.953125 -32.9375 Z M 20.953125 -32.9375 "/></g></g></g><g fill="#000000" fill-opacity="1"><g transform="translate(178.379885, 274.748254)"><g><path d="M 6.375 -11.40625 C 7.082031 -11.632812 7.976562 -11.8125 9.0625 -11.9375 C 10.144531 -12.0625 11.425781 -12.144531 12.90625 -12.1875 C 15.9375 -12.21875 17.929688 -12.4375 18.890625 -12.84375 C 18.347656 -17.257812 18.015625 -19.882812 17.890625 -20.71875 C 17.378906 -24.394531 16.722656 -27.113281 15.921875 -28.875 C 15.054688 -30.789062 13.984375 -31.75 12.703125 -31.75 C 11.585938 -31.75 10.644531 -30.769531 9.875 -28.8125 C 9.5625 -28.019531 9.242188 -26.925781 8.921875 -25.53125 C 8.597656 -24.144531 8.273438 -22.457031 7.953125 -20.46875 C 7.191406 -15.832031 6.664062 -12.8125 6.375 -11.40625 Z M 2.296875 0 C 2.171875 0.21875 1.960938 0.363281 1.671875 0.4375 C 1.390625 0.5 1.148438 0.460938 0.953125 0.328125 C 0.734375 0.203125 0.59375 0 0.53125 -0.28125 C 0.5 -0.539062 0.546875 -0.78125 0.671875 -1 C 0.828125 -1.257812 0.992188 -1.539062 1.171875 -1.84375 C 1.347656 -2.144531 1.515625 -2.457031 1.671875 -2.78125 C 1.835938 -3.101562 1.988281 -3.429688 2.125 -3.765625 C 2.269531 -4.097656 2.410156 -4.457031 2.546875 -4.84375 C 2.796875 -5.613281 3.035156 -6.285156 3.265625 -6.859375 C 3.359375 -7.109375 3.453125 -7.425781 3.546875 -7.8125 C 3.640625 -8.195312 3.753906 -8.644531 3.890625 -9.15625 C 4.015625 -9.664062 4.113281 -10.101562 4.1875 -10.46875 C 4.269531 -10.84375 4.34375 -11.140625 4.40625 -11.359375 C 4.46875 -11.585938 4.53125 -11.898438 4.59375 -12.296875 C 4.664062 -12.703125 4.765625 -13.207031 4.890625 -13.8125 C 4.984375 -14.414062 5.0625 -14.898438 5.125 -15.265625 C 5.195312 -15.640625 5.25 -15.90625 5.28125 -16.0625 C 5.34375 -16.414062 5.484375 -17.234375 5.703125 -18.515625 C 5.796875 -19.148438 5.867188 -19.660156 5.921875 -20.046875 C 5.972656 -20.429688 6.015625 -20.671875 6.046875 -20.765625 C 6.773438 -24.953125 7.445312 -27.878906 8.0625 -29.546875 C 9.175781 -32.285156 10.722656 -33.65625 12.703125 -33.65625 C 14.785156 -33.65625 16.429688 -32.332031 17.640625 -29.6875 C 18.441406 -27.832031 19.160156 -24.9375 19.796875 -21 C 19.898438 -20.363281 20.019531 -19.5 20.15625 -18.40625 C 20.300781 -17.320312 20.457031 -16.03125 20.625 -14.53125 C 20.78125 -13 20.953125 -11.582031 21.140625 -10.28125 C 21.335938 -8.988281 21.53125 -7.816406 21.71875 -6.765625 C 22.039062 -4.617188 22.472656 -2.734375 23.015625 -1.109375 C 23.109375 -0.847656 23.09375 -0.609375 22.96875 -0.390625 C 22.84375 -0.160156 22.648438 0 22.390625 0.09375 C 22.140625 0.15625 21.898438 0.140625 21.671875 0.046875 C 21.453125 -0.078125 21.289062 -0.269531 21.1875 -0.53125 C 20.8125 -1.707031 20.453125 -3.160156 20.109375 -4.890625 C 19.773438 -6.617188 19.453125 -8.617188 19.140625 -10.890625 C 18.585938 -10.722656 17.789062 -10.582031 16.75 -10.46875 C 15.71875 -10.363281 14.453125 -10.296875 12.953125 -10.265625 C 9.554688 -10.171875 7.1875 -9.800781 5.84375 -9.15625 C 4.945312 -5.320312 3.765625 -2.269531 2.296875 0 Z M 2.296875 0 "/></g></g></g><g fill="#000000" fill-opacity="1"><g transform="translate(203.118968, 274.748254)"><g><path d="M 1.109375 -31.5 C 0.847656 -31.5625 0.671875 -31.722656 0.578125 -31.984375 C 0.453125 -32.210938 0.4375 -32.453125 0.53125 -32.703125 C 0.625 -32.929688 0.800781 -33.125 1.0625 -33.28125 C 1.28125 -33.375 1.5 -33.375 1.71875 -33.28125 C 2.300781 -33.050781 3.453125 -32.9375 5.171875 -32.9375 C 6.390625 -32.96875 8.148438 -33.066406 10.453125 -33.234375 C 10.710938 -33.265625 11.070312 -33.296875 11.53125 -33.328125 C 12 -33.359375 12.582031 -33.40625 13.28125 -33.46875 C 13.988281 -33.53125 14.554688 -33.566406 14.984375 -33.578125 C 15.410156 -33.597656 15.738281 -33.625 15.96875 -33.65625 C 16.1875 -33.65625 16.492188 -33.664062 16.890625 -33.6875 C 17.296875 -33.707031 17.800781 -33.734375 18.40625 -33.765625 C 19.625 -33.828125 20.25 -33.828125 20.28125 -33.765625 C 20.570312 -33.691406 20.796875 -33.578125 20.953125 -33.421875 C 21.109375 -33.203125 21.1875 -32.976562 21.1875 -32.75 C 21.125 -32.425781 21.015625 -32.203125 20.859375 -32.078125 C 20.671875 -31.890625 20.429688 -31.8125 20.140625 -31.84375 C 19.722656 -31.875 18.753906 -31.847656 17.234375 -31.765625 C 15.722656 -31.691406 13.671875 -31.554688 11.078125 -31.359375 L 10.984375 -0.390625 C 10.984375 -0.128906 10.882812 0.09375 10.6875 0.28125 C 10.5 0.476562 10.273438 0.578125 10.015625 0.578125 C 9.765625 0.578125 9.539062 0.476562 9.34375 0.28125 C 9.15625 0.09375 9.0625 -0.128906 9.0625 -0.390625 C 9.09375 -5.535156 9.109375 -10.679688 9.109375 -15.828125 C 9.109375 -20.972656 9.125 -26.101562 9.15625 -31.21875 C 8.351562 -31.1875 7.625 -31.15625 6.96875 -31.125 C 6.320312 -31.09375 5.722656 -31.0625 5.171875 -31.03125 C 3.222656 -31.03125 1.867188 -31.1875 1.109375 -31.5 Z M 1.109375 -31.5 "/></g></g></g><g fill="#000000" fill-opacity="1"><g transform="translate(225.940283, 274.748254)"><g><path d="M 4.65625 -31.359375 C 4.8125 -31.265625 4.9375 -31.296875 5.03125 -31.453125 C 4.96875 -31.421875 4.90625 -31.40625 4.84375 -31.40625 C 4.78125 -31.40625 4.71875 -31.390625 4.65625 -31.359375 Z M 5.078125 -31.59375 C 5.140625 -31.757812 5.140625 -31.953125 5.078125 -32.171875 Z M 17.21875 -33.234375 C 17.53125 -33.171875 17.769531 -33.054688 17.9375 -32.890625 C 18.09375 -32.671875 18.171875 -32.445312 18.171875 -32.21875 C 18.109375 -31.90625 18 -31.679688 17.84375 -31.546875 C 17.644531 -31.359375 17.421875 -31.28125 17.171875 -31.3125 C 15.503906 -31.375 13.941406 -31.421875 12.484375 -31.453125 C 11.035156 -31.484375 9.703125 -31.515625 8.484375 -31.546875 C 7.816406 -31.546875 7.226562 -31.535156 6.71875 -31.515625 C 6.207031 -31.503906 5.773438 -31.484375 5.421875 -31.453125 C 5.359375 -31.453125 5.300781 -31.453125 5.25 -31.453125 C 5.195312 -31.453125 5.140625 -31.453125 5.078125 -31.453125 C 5.078125 -29.148438 5.078125 -26.847656 5.078125 -24.546875 C 5.078125 -22.242188 5.0625 -19.941406 5.03125 -17.640625 C 5.644531 -17.609375 6.375 -17.640625 7.21875 -17.734375 C 8.0625 -17.835938 9.046875 -17.984375 10.171875 -18.171875 C 11.472656 -18.398438 12.617188 -18.566406 13.609375 -18.671875 C 14.609375 -18.785156 15.441406 -18.828125 16.109375 -18.796875 C 16.398438 -18.796875 16.640625 -18.703125 16.828125 -18.515625 C 16.992188 -18.285156 17.078125 -18.0625 17.078125 -17.84375 C 17.003906 -17.519531 16.890625 -17.296875 16.734375 -17.171875 C 16.546875 -16.972656 16.320312 -16.875 16.0625 -16.875 C 14.84375 -16.9375 12.988281 -16.742188 10.5 -16.296875 C 8.164062 -15.890625 6.34375 -15.703125 5.03125 -15.734375 L 4.984375 -1.671875 C 5.785156 -1.640625 7.445312 -1.691406 9.96875 -1.828125 C 11.757812 -1.921875 13.269531 -1.984375 14.5 -2.015625 C 15.738281 -2.046875 16.691406 -2.046875 17.359375 -2.015625 C 17.648438 -1.953125 17.875 -1.835938 18.03125 -1.671875 C 18.1875 -1.453125 18.265625 -1.226562 18.265625 -1 C 18.203125 -0.6875 18.09375 -0.460938 17.9375 -0.328125 C 17.675781 -0.140625 17.4375 -0.0625 17.21875 -0.09375 C 16.570312 -0.125 15.65625 -0.125 14.46875 -0.09375 C 13.289062 -0.0625 11.84375 0 10.125 0.09375 C 8.550781 0.15625 7.269531 0.191406 6.28125 0.203125 C 5.289062 0.222656 4.570312 0.203125 4.125 0.140625 C 4.09375 0.171875 4.0625 0.1875 4.03125 0.1875 C 3.738281 0.1875 3.515625 0.09375 3.359375 -0.09375 C 3.160156 -0.289062 3.0625 -0.53125 3.0625 -0.8125 L 3.171875 -32.078125 C 3.128906 -32.492188 3.332031 -32.832031 3.78125 -33.09375 C 3.851562 -33.125 3.925781 -33.15625 4 -33.1875 C 4.082031 -33.21875 4.171875 -33.25 4.265625 -33.28125 C 4.390625 -33.3125 4.53125 -33.328125 4.6875 -33.328125 C 4.851562 -33.328125 5.050781 -33.34375 5.28125 -33.375 C 5.65625 -33.40625 6.109375 -33.425781 6.640625 -33.4375 C 7.171875 -33.457031 7.785156 -33.46875 8.484375 -33.46875 C 9.734375 -33.4375 11.082031 -33.40625 12.53125 -33.375 C 13.988281 -33.34375 15.550781 -33.296875 17.21875 -33.234375 Z M 17.21875 -33.234375 "/></g></g></g><g fill="#000000" fill-opacity="1"><g transform="translate(245.836989, 274.748254)"><g/></g></g><g fill="#000000" fill-opacity="1"><g transform="translate(258.781749, 274.748254)"><g><path d="M 4.65625 -31.359375 C 4.8125 -31.265625 4.9375 -31.296875 5.03125 -31.453125 C 4.96875 -31.421875 4.90625 -31.40625 4.84375 -31.40625 C 4.78125 -31.40625 4.71875 -31.390625 4.65625 -31.359375 Z M 5.078125 -31.59375 C 5.140625 -31.757812 5.140625 -31.953125 5.078125 -32.171875 Z M 17.21875 -33.234375 C 17.53125 -33.171875 17.769531 -33.054688 17.9375 -32.890625 C 18.09375 -32.671875 18.171875 -32.445312 18.171875 -32.21875 C 18.109375 -31.90625 18 -31.679688 17.84375 -31.546875 C 17.644531 -31.359375 17.421875 -31.28125 17.171875 -31.3125 C 15.503906 -31.375 13.941406 -31.421875 12.484375 -31.453125 C 11.035156 -31.484375 9.703125 -31.515625 8.484375 -31.546875 C 7.816406 -31.546875 7.226562 -31.535156 6.71875 -31.515625 C 6.207031 -31.503906 5.773438 -31.484375 5.421875 -31.453125 C 5.359375 -31.453125 5.300781 -31.453125 5.25 -31.453125 C 5.195312 -31.453125 5.140625 -31.453125 5.078125 -31.453125 C 5.078125 -29.148438 5.078125 -26.847656 5.078125 -24.546875 C 5.078125 -22.242188 5.0625 -19.941406 5.03125 -17.640625 C 5.644531 -17.609375 6.375 -17.640625 7.21875 -17.734375 C 8.0625 -17.835938 9.046875 -17.984375 10.171875 -18.171875 C 11.472656 -18.398438 12.617188 -18.566406 13.609375 -18.671875 C 14.609375 -18.785156 15.441406 -18.828125 16.109375 -18.796875 C 16.398438 -18.796875 16.640625 -18.703125 16.828125 -18.515625 C 16.992188 -18.285156 17.078125 -18.0625 17.078125 -17.84375 C 17.003906 -17.519531 16.890625 -17.296875 16.734375 -17.171875 C 16.546875 -16.972656 16.320312 -16.875 16.0625 -16.875 C 14.84375 -16.9375 12.988281 -16.742188 10.5 -16.296875 C 8.164062 -15.890625 6.34375 -15.703125 5.03125 -15.734375 L 4.984375 -1.671875 C 5.785156 -1.640625 7.445312 -1.691406 9.96875 -1.828125 C 11.757812 -1.921875 13.269531 -1.984375 14.5 -2.015625 C 15.738281 -2.046875 16.691406 -2.046875 17.359375 -2.015625 C 17.648438 -1.953125 17.875 -1.835938 18.03125 -1.671875 C 18.1875 -1.453125 18.265625 -1.226562 18.265625 -1 C 18.203125 -0.6875 18.09375 -0.460938 17.9375 -0.328125 C 17.675781 -0.140625 17.4375 -0.0625 17.21875 -0.09375 C 16.570312 -0.125 15.65625 -0.125 14.46875 -0.09375 C 13.289062 -0.0625 11.84375 0 10.125 0.09375 C 8.550781 0.15625 7.269531 0.191406 6.28125 0.203125 C 5.289062 0.222656 4.570312 0.203125 4.125 0.140625 C 4.09375 0.171875 4.0625 0.1875 4.03125 0.1875 C 3.738281 0.1875 3.515625 0.09375 3.359375 -0.09375 C 3.160156 -0.289062 3.0625 -0.53125 3.0625 -0.8125 L 3.171875 -32.078125 C 3.128906 -32.492188 3.332031 -32.832031 3.78125 -33.09375 C 3.851562 -33.125 3.925781 -33.15625 4 -33.1875 C 4.082031 -33.21875 4.171875 -33.25 4.265625 -33.28125 C 4.390625 -33.3125 4.53125 -33.328125 4.6875 -33.328125 C 4.851562 -33.328125 5.050781 -33.34375 5.28125 -33.375 C 5.65625 -33.40625 6.109375 -33.425781 6.640625 -33.4375 C 7.171875 -33.457031 7.785156 -33.46875 8.484375 -33.46875 C 9.734375 -33.4375 11.082031 -33.40625 12.53125 -33.375 C 13.988281 -33.34375 15.550781 -33.296875 17.21875 -33.234375 Z M 17.21875 -33.234375 "/></g></g></g><g fill="#000000" fill-opacity="1"><g transform="translate(278.678456, 274.748254)"><g><path d="M 4.5625 -1.578125 C 10.082031 -1.003906 14.15625 -1.722656 16.78125 -3.734375 C 19.976562 -6.265625 21.609375 -11.269531 21.671875 -18.75 C 21.703125 -23.925781 20.28125 -27.695312 17.40625 -30.0625 C 14.5 -32.394531 10.25 -33.113281 4.65625 -32.21875 C 4.625 -29.507812 4.609375 -26.875 4.609375 -24.3125 C 4.609375 -21.75 4.59375 -19.269531 4.5625 -16.875 C 4.519531 -14.539062 4.5 -12.445312 4.5 -10.59375 C 4.5 -8.738281 4.5 -7.140625 4.5 -5.796875 C 4.5 -5.003906 4.5 -4.300781 4.5 -3.6875 C 4.5 -3.082031 4.519531 -2.554688 4.5625 -2.109375 C 4.5625 -2.015625 4.5625 -1.914062 4.5625 -1.8125 C 4.5625 -1.71875 4.5625 -1.640625 4.5625 -1.578125 Z M 2.78125 -33.09375 C 2.78125 -33.34375 2.875 -33.566406 3.0625 -33.765625 C 3.226562 -33.953125 3.453125 -34.046875 3.734375 -34.046875 C 3.765625 -34.046875 3.78125 -34.046875 3.78125 -34.046875 C 3.78125 -34.046875 3.800781 -34.046875 3.84375 -34.046875 C 10.226562 -35.191406 15.164062 -34.359375 18.65625 -31.546875 C 21.976562 -28.796875 23.625 -24.53125 23.59375 -18.75 C 23.53125 -10.664062 21.644531 -5.164062 17.9375 -2.25 C 14.769531 0.207031 9.972656 1.035156 3.546875 0.234375 C 3.253906 0.171875 3.046875 0.0625 2.921875 -0.09375 C 2.828125 -0.1875 2.765625 -0.265625 2.734375 -0.328125 C 2.734375 -0.429688 2.71875 -0.5 2.6875 -0.53125 C 2.6875 -0.5625 2.6875 -0.59375 2.6875 -0.625 C 2.6875 -0.65625 2.6875 -0.6875 2.6875 -0.71875 C 2.65625 -0.75 2.640625 -0.863281 2.640625 -1.0625 C 2.640625 -1.1875 2.640625 -1.335938 2.640625 -1.515625 C 2.640625 -1.691406 2.640625 -1.890625 2.640625 -2.109375 C 2.609375 -2.523438 2.59375 -3.035156 2.59375 -3.640625 C 2.59375 -4.253906 2.59375 -4.957031 2.59375 -5.75 C 2.59375 -7.125 2.59375 -8.738281 2.59375 -10.59375 C 2.59375 -12.445312 2.609375 -14.554688 2.640625 -16.921875 C 2.640625 -18.140625 2.640625 -19.378906 2.640625 -20.640625 C 2.640625 -21.898438 2.65625 -23.203125 2.6875 -24.546875 C 2.71875 -25.890625 2.734375 -27.085938 2.734375 -28.140625 C 2.734375 -29.203125 2.734375 -30.097656 2.734375 -30.828125 Z M 2.78125 -33.09375 "/></g></g></g><g fill="#000000" fill-opacity="1"><g transform="translate(303.944927, 274.748254)"><g><path d="M 4.984375 -32.984375 C 5.046875 -33.273438 5.191406 -33.484375 5.421875 -33.609375 C 5.640625 -33.773438 5.863281 -33.84375 6.09375 -33.8125 C 6.375 -33.75 6.582031 -33.617188 6.71875 -33.421875 C 6.875 -33.128906 6.9375 -32.890625 6.90625 -32.703125 C 6.875 -32.484375 6.800781 -32.0625 6.6875 -31.4375 C 6.570312 -30.8125 6.4375 -29.972656 6.28125 -28.921875 C 6.125 -27.859375 5.972656 -26.90625 5.828125 -26.0625 C 5.679688 -25.21875 5.578125 -24.472656 5.515625 -23.828125 C 5.421875 -23.191406 5.320312 -22.460938 5.21875 -21.640625 C 5.125 -20.828125 5.046875 -19.910156 4.984375 -18.890625 C 4.796875 -16.878906 4.703125 -15.085938 4.703125 -13.515625 C 4.734375 -9.773438 5.289062 -6.914062 6.375 -4.9375 C 7.53125 -2.757812 9.351562 -1.640625 11.84375 -1.578125 C 14.53125 -1.546875 16.546875 -2.648438 17.890625 -4.890625 C 19.066406 -6.835938 19.785156 -9.695312 20.046875 -13.46875 C 20.203125 -15.550781 20.15625 -17.984375 19.90625 -20.765625 C 19.769531 -22.171875 19.65625 -23.382812 19.5625 -24.40625 C 19.46875 -25.425781 19.375 -26.289062 19.28125 -27 C 19.1875 -27.695312 19.066406 -28.515625 18.921875 -29.453125 C 18.773438 -30.398438 18.585938 -31.484375 18.359375 -32.703125 C 18.328125 -32.890625 18.394531 -33.128906 18.5625 -33.421875 C 18.71875 -33.617188 18.925781 -33.75 19.1875 -33.8125 C 19.375 -33.84375 19.613281 -33.773438 19.90625 -33.609375 C 20.09375 -33.453125 20.21875 -33.242188 20.28125 -32.984375 C 20.476562 -31.773438 20.644531 -30.695312 20.78125 -29.75 C 20.925781 -28.8125 21.0625 -27.988281 21.1875 -27.28125 C 21.289062 -26.582031 21.390625 -25.703125 21.484375 -24.640625 C 21.578125 -23.585938 21.6875 -22.34375 21.8125 -20.90625 C 22.070312 -18.03125 22.125 -15.503906 21.96875 -13.328125 C 21.707031 -9.234375 20.90625 -6.085938 19.5625 -3.890625 C 17.769531 -1.035156 15.195312 0.367188 11.84375 0.328125 C 8.582031 0.265625 6.1875 -1.1875 4.65625 -4.03125 C 3.46875 -6.269531 2.84375 -9.414062 2.78125 -13.46875 C 2.78125 -15.132812 2.875 -16.988281 3.0625 -19.03125 C 3.132812 -20.0625 3.21875 -21.003906 3.3125 -21.859375 C 3.40625 -22.722656 3.5 -23.476562 3.59375 -24.125 C 3.6875 -24.757812 3.804688 -25.507812 3.953125 -26.375 C 4.097656 -27.238281 4.25 -28.210938 4.40625 -29.296875 C 4.570312 -30.347656 4.703125 -31.1875 4.796875 -31.8125 C 4.890625 -32.4375 4.953125 -32.828125 4.984375 -32.984375 Z M 4.984375 -32.984375 "/></g></g></g></svg>