<svg xmlns="http://www.w3.org/2000/svg" xmlns:xlink="http://www.w3.org/1999/xlink" width="500" zoomAndPan="magnify" viewBox="0 0 375 374.999991" height="500" preserveAspectRatio="xMidYMid meet" version="1.0"><defs><clipPath id="8488e6b7e2"><path d="M 173.421875 301.5 L 201.699219 301.5 L 201.699219 311.875 L 173.421875 311.875 Z M 173.421875 301.5 " clip-rule="nonzero"/></clipPath><clipPath id="d3663a1802"><path d="M 185 63.085938 L 190 63.085938 L 190 83 L 185 83 Z M 185 63.085938 " clip-rule="nonzero"/></clipPath><clipPath id="8626ad99a9"><path d="M 73.660156 174 L 94 174 L 94 179 L 73.660156 179 Z M 73.660156 174 " clip-rule="nonzero"/></clipPath><clipPath id="59f2ca9810"><path d="M 281 174.257812 L 301.183594 174.257812 L 301.183594 179 L 281 179 Z M 281 174.257812 " clip-rule="nonzero"/></clipPath></defs><rect x="-37.5" width="450" fill="#ffffff" y="-37.499999" height="449.999989" fill-opacity="1"/><rect x="-37.5" width="450" fill="#ffffff" y="-37.499999" height="449.999989" fill-opacity="1"/><path fill="#eb8686" d="M 167.070312 100.652344 C 158.601562 100.652344 151.464844 106.621094 149.757812 114.671875 C 148.703125 114.519531 147.644531 114.441406 146.582031 114.441406 C 134.445312 114.441406 124.574219 124.3125 124.574219 136.449219 C 124.574219 137.472656 124.644531 138.496094 124.785156 139.511719 C 117.894531 142.019531 113.097656 148.6875 113.097656 156.164062 C 113.097656 159.890625 114.273438 163.480469 116.429688 166.480469 C 116.425781 166.488281 116.421875 166.492188 116.414062 166.5 C 116.0625 166.933594 115.734375 167.375 115.417969 167.832031 C 115.355469 167.921875 115.289062 168.007812 115.226562 168.101562 C 114.933594 168.535156 114.65625 168.980469 114.394531 169.433594 C 114.328125 169.542969 114.265625 169.65625 114.203125 169.769531 C 113.953125 170.222656 113.714844 170.683594 113.496094 171.15625 C 113.449219 171.257812 113.40625 171.359375 113.359375 171.460938 C 113.152344 171.929688 112.957031 172.40625 112.78125 172.890625 C 112.761719 172.941406 112.742188 172.996094 112.71875 173.050781 C 112.542969 173.554688 112.386719 174.070312 112.242188 174.589844 C 112.214844 174.691406 112.1875 174.792969 112.15625 174.894531 C 112.027344 175.410156 111.914062 175.929688 111.820312 176.457031 C 111.800781 176.566406 111.78125 176.679688 111.761719 176.792969 C 111.671875 177.328125 111.601562 177.863281 111.554688 178.40625 C 111.546875 178.496094 111.539062 178.582031 111.535156 178.671875 C 111.492188 179.246094 111.460938 179.828125 111.460938 180.410156 C 111.460938 180.414062 111.460938 180.414062 111.460938 180.414062 C 111.460938 180.417969 111.460938 180.417969 111.460938 180.417969 C 111.460938 187.734375 115.066406 194.480469 121.011719 198.558594 C 119.300781 201.742188 118.402344 205.292969 118.402344 208.953125 C 118.402344 221.347656 128.722656 231.410156 141.1875 230.945312 C 143.046875 240.410156 150.992188 247.714844 160.765625 248.605469 C 160.820312 248.609375 160.875 248.617188 160.933594 248.617188 C 161.542969 248.671875 162.15625 248.699219 162.78125 248.699219 C 174.914062 248.699219 184.785156 238.828125 184.785156 226.695312 L 184.785156 118.367188 C 184.785156 108.601562 176.839844 100.652344 167.070312 100.652344 " fill-opacity="1" fill-rule="nonzero"/><path fill="#000000" d="M 143.234375 225.980469 C 143.769531 225.980469 144.292969 226.160156 144.722656 226.5 C 145.234375 226.910156 145.558594 227.511719 145.613281 228.167969 C 146.363281 237.003906 153.902344 243.925781 162.78125 243.925781 C 172.28125 243.925781 180.011719 236.199219 180.011719 226.695312 L 180.011719 118.367188 C 180.011719 111.230469 174.207031 105.429688 167.070312 105.429688 C 160.207031 105.429688 154.539062 110.800781 154.167969 117.660156 C 154.125 118.382812 153.765625 119.042969 153.179688 119.464844 C 152.589844 119.890625 151.847656 120.023438 151.152344 119.832031 C 149.660156 119.421875 148.121094 119.214844 146.582031 119.214844 C 137.078125 119.214844 129.347656 126.945312 129.347656 136.449219 C 129.347656 137.851562 129.519531 139.253906 129.859375 140.621094 C 130.011719 141.246094 129.910156 141.90625 129.570312 142.453125 C 129.226562 143.003906 128.679688 143.390625 128.050781 143.527344 C 122.152344 144.8125 117.875 150.125 117.875 156.164062 C 117.875 159.417969 119.101562 162.535156 121.324219 164.9375 C 122.195312 165.878906 122.167969 167.339844 121.265625 168.246094 C 118.023438 171.5 116.234375 175.820312 116.234375 180.414062 C 116.234375 186.8125 119.75 192.648438 125.414062 195.652344 C 126.019531 195.972656 126.457031 196.53125 126.621094 197.199219 C 126.78125 197.859375 126.648438 198.5625 126.257812 199.125 C 124.242188 202.019531 123.179688 205.417969 123.179688 208.953125 C 123.179688 218.453125 130.90625 226.1875 140.410156 226.1875 C 141.222656 226.1875 142.058594 226.125 142.894531 226.007812 C 143.007812 225.992188 143.121094 225.980469 143.234375 225.980469 Z M 162.78125 248.699219 C 152.25 248.699219 143.195312 241.074219 141.191406 230.945312 C 128.726562 231.414062 118.402344 221.347656 118.402344 208.953125 C 118.402344 205.292969 119.300781 201.742188 121.011719 198.558594 C 115.066406 194.476562 111.460938 187.734375 111.460938 180.414062 C 111.460938 175.277344 113.210938 170.402344 116.429688 166.480469 C 114.273438 163.480469 113.097656 159.890625 113.097656 156.164062 C 113.097656 148.6875 117.894531 142.019531 124.785156 139.511719 C 124.644531 138.496094 124.574219 137.472656 124.574219 136.449219 C 124.574219 124.3125 134.445312 114.441406 146.582031 114.441406 C 147.644531 114.441406 148.707031 114.519531 149.757812 114.671875 C 151.464844 106.625 158.601562 100.652344 167.070312 100.652344 C 176.839844 100.652344 184.785156 108.601562 184.785156 118.367188 L 184.785156 226.695312 C 184.785156 238.828125 174.914062 248.699219 162.78125 248.699219 " fill-opacity="1" fill-rule="nonzero"/><path fill="#000000" d="M 167.070312 136.085938 C 157.300781 136.085938 149.351562 128.140625 149.351562 118.367188 C 149.351562 117.050781 150.421875 115.980469 151.738281 115.980469 C 153.058594 115.980469 154.125 117.050781 154.125 118.367188 C 154.125 125.503906 159.933594 131.3125 167.070312 131.3125 C 168.386719 131.3125 169.457031 132.382812 169.457031 133.699219 C 169.457031 135.015625 168.386719 136.085938 167.070312 136.085938 " fill-opacity="1" fill-rule="nonzero"/><path fill="#000000" d="M 162.78125 248.699219 C 150.644531 248.699219 140.769531 238.828125 140.769531 226.695312 C 140.769531 214.558594 150.644531 204.6875 162.78125 204.6875 C 164.097656 204.6875 165.164062 205.753906 165.164062 207.074219 C 165.164062 208.390625 164.097656 209.460938 162.78125 209.460938 C 153.277344 209.460938 145.542969 217.191406 145.542969 226.695312 C 145.542969 236.199219 153.277344 243.925781 162.78125 243.925781 C 164.097656 243.925781 165.164062 244.996094 165.164062 246.316406 C 165.164062 247.632812 164.097656 248.699219 162.78125 248.699219 " fill-opacity="1" fill-rule="nonzero"/><path fill="#000000" d="M 153.085938 182.804688 C 151.765625 182.804688 150.699219 181.734375 150.699219 180.417969 C 150.699219 174.511719 147.730469 169.089844 142.765625 165.902344 C 139.988281 164.125 136.773438 163.183594 133.46875 163.183594 C 128.851562 163.183594 124.511719 164.980469 121.253906 168.253906 C 118.019531 171.511719 116.234375 175.832031 116.234375 180.417969 C 116.234375 181.734375 115.164062 182.804688 113.847656 182.804688 C 112.53125 182.804688 111.460938 181.734375 111.460938 180.417969 C 111.460938 174.5625 113.738281 169.046875 117.867188 164.890625 C 122.03125 160.707031 127.570312 158.40625 133.46875 158.40625 C 137.691406 158.40625 141.792969 159.609375 145.339844 161.882812 C 151.6875 165.949219 155.472656 172.878906 155.472656 180.417969 C 155.472656 181.734375 154.402344 182.804688 153.085938 182.804688 " fill-opacity="1" fill-rule="nonzero"/><path fill="#000000" d="M 172.550781 283.230469 L 172.550781 284.910156 C 172.550781 285.648438 173.148438 286.242188 173.882812 286.242188 L 201.117188 286.242188 C 201.851562 286.242188 202.449219 285.648438 202.449219 284.910156 L 202.449219 283.230469 Z M 201.117188 290.550781 L 173.882812 290.550781 C 170.773438 290.550781 168.242188 288.023438 168.242188 284.910156 L 168.242188 282.914062 C 168.242188 280.710938 170.035156 278.917969 172.238281 278.917969 L 202.761719 278.917969 C 204.96875 278.917969 206.757812 280.710938 206.757812 282.914062 L 206.757812 284.910156 C 206.757812 288.023438 204.230469 290.550781 201.117188 290.550781 " fill-opacity="1" fill-rule="nonzero"/><path fill="#000000" d="M 172.550781 290.550781 L 172.550781 292.238281 C 172.550781 292.96875 173.148438 293.566406 173.882812 293.566406 L 201.117188 293.566406 C 201.851562 293.566406 202.449219 292.96875 202.449219 292.238281 L 202.449219 290.550781 Z M 201.117188 297.875 L 173.882812 297.875 C 170.773438 297.875 168.242188 295.34375 168.242188 292.238281 L 168.242188 290.242188 C 168.242188 288.035156 170.035156 286.242188 172.238281 286.242188 L 202.761719 286.242188 C 204.96875 286.242188 206.757812 288.035156 206.757812 290.242188 L 206.757812 292.238281 C 206.757812 295.34375 204.230469 297.875 201.117188 297.875 " fill-opacity="1" fill-rule="nonzero"/><path fill="#000000" d="M 172.550781 297.875 L 172.550781 299.5625 C 172.550781 300.292969 173.148438 300.890625 173.882812 300.890625 L 201.117188 300.890625 C 201.851562 300.890625 202.449219 300.292969 202.449219 299.5625 L 202.449219 297.875 Z M 201.117188 305.199219 L 173.882812 305.199219 C 170.773438 305.199219 168.242188 302.667969 168.242188 299.5625 L 168.242188 297.5625 C 168.242188 295.359375 170.035156 293.566406 172.238281 293.566406 L 202.761719 293.566406 C 204.96875 293.566406 206.757812 295.359375 206.757812 297.5625 L 206.757812 299.5625 C 206.757812 302.667969 204.230469 305.199219 201.117188 305.199219 " fill-opacity="1" fill-rule="nonzero"/><g clip-path="url(#8488e6b7e2)"><path fill="#000000" d="M 193.628906 311.875 L 181.371094 311.875 C 179.605469 311.875 177.96875 311 176.992188 309.53125 L 173.460938 304.242188 L 177.046875 301.847656 L 180.574219 307.140625 C 180.753906 307.410156 181.050781 307.566406 181.371094 307.566406 L 193.628906 307.566406 C 193.949219 307.566406 194.25 307.410156 194.425781 307.140625 L 197.953125 301.847656 L 201.539062 304.242188 L 198.011719 309.53125 C 197.03125 311 195.394531 311.875 193.628906 311.875 " fill-opacity="1" fill-rule="nonzero"/></g><path fill="#000000" d="M 182.511719 283.230469 L 170.417969 283.230469 C 169.804688 283.230469 169.214844 282.964844 168.808594 282.503906 C 164.179688 277.289062 162.652344 270.886719 161.171875 264.695312 C 159.261719 256.683594 157.457031 249.117188 149.226562 244.023438 L 151.492188 240.359375 C 161.234375 246.382812 163.335938 255.183594 165.367188 263.695312 C 166.707031 269.308594 167.972656 274.632812 171.421875 278.917969 L 180.355469 278.917969 L 180.355469 230.574219 C 180.355469 229.382812 181.324219 228.417969 182.511719 228.417969 C 183.703125 228.417969 184.667969 229.382812 184.667969 230.574219 L 184.667969 281.074219 C 184.667969 282.261719 183.703125 283.230469 182.511719 283.230469 " fill-opacity="1" fill-rule="nonzero"/><path fill="#fff175" d="M 263.542969 175.828125 C 263.542969 135.511719 232.15625 102.542969 192.488281 99.96875 L 192.488281 281.074219 L 204.640625 281.074219 C 214.667969 269.777344 209.046875 251.867188 224.699219 242.191406 L 224.640625 242.191406 C 247.851562 229.171875 263.542969 204.335938 263.542969 175.828125 " fill-opacity="1" fill-rule="nonzero"/><path fill="#000000" d="M 194.640625 278.917969 L 203.640625 278.917969 C 207.085938 274.632812 208.351562 269.308594 209.695312 263.695312 C 211.695312 255.289062 213.769531 246.605469 223.207031 240.585938 C 223.320312 240.484375 223.449219 240.390625 223.585938 240.3125 C 246.902344 227.234375 261.386719 202.527344 261.386719 175.828125 C 261.386719 137.777344 232.253906 105.914062 194.640625 102.304688 Z M 204.640625 283.230469 L 192.488281 283.230469 C 191.296875 283.230469 190.335938 282.261719 190.335938 281.074219 L 190.335938 99.96875 C 190.335938 99.375 190.582031 98.804688 191.015625 98.398438 C 191.449219 97.992188 192.035156 97.785156 192.628906 97.820312 C 233.601562 100.476562 265.695312 134.742188 265.695312 175.828125 C 265.695312 203.949219 250.515625 229.980469 226.050781 243.871094 C 225.980469 243.925781 225.910156 243.976562 225.832031 244.023438 C 217.601562 249.117188 215.796875 256.683594 213.886719 264.695312 C 212.40625 270.886719 210.882812 277.289062 206.253906 282.503906 C 205.84375 282.964844 205.253906 283.230469 204.640625 283.230469 " fill-opacity="1" fill-rule="nonzero"/><path fill="#000000" d="M 242.933594 140.992188 C 242.238281 140.992188 241.554688 140.65625 241.140625 140.035156 C 233.707031 128.929688 223.238281 120.511719 210.871094 115.691406 C 209.765625 115.257812 209.214844 114.007812 209.644531 112.902344 C 210.078125 111.789062 211.332031 111.246094 212.4375 111.675781 C 225.628906 116.816406 236.792969 125.796875 244.722656 137.636719 C 245.382812 138.625 245.117188 139.964844 244.128906 140.625 C 243.761719 140.875 243.347656 140.992188 242.933594 140.992188 " fill-opacity="1" fill-rule="nonzero"/><g clip-path="url(#d3663a1802)"><path fill="#000000" d="M 187.5 82.953125 C 186.3125 82.953125 185.347656 81.988281 185.347656 80.796875 L 185.347656 65.238281 C 185.347656 64.046875 186.3125 63.082031 187.5 63.082031 C 188.691406 63.082031 189.65625 64.046875 189.65625 65.238281 L 189.65625 80.796875 C 189.65625 81.988281 188.691406 82.953125 187.5 82.953125 " fill-opacity="1" fill-rule="nonzero"/></g><path fill="#000000" d="M 119.640625 111.0625 C 119.089844 111.0625 118.539062 110.851562 118.117188 110.429688 L 107.113281 99.425781 C 106.269531 98.585938 106.269531 97.222656 107.113281 96.382812 C 107.957031 95.539062 109.320312 95.539062 110.160156 96.382812 L 121.164062 107.382812 C 122.003906 108.226562 122.003906 109.589844 121.164062 110.429688 C 120.742188 110.851562 120.191406 111.0625 119.640625 111.0625 " fill-opacity="1" fill-rule="nonzero"/><g clip-path="url(#8626ad99a9)"><path fill="#000000" d="M 91.53125 178.921875 L 75.972656 178.921875 C 74.78125 178.921875 73.816406 177.957031 73.816406 176.765625 C 73.816406 175.578125 74.78125 174.613281 75.972656 174.613281 L 91.53125 174.613281 C 92.722656 174.613281 93.6875 175.578125 93.6875 176.765625 C 93.6875 177.957031 92.722656 178.921875 91.53125 178.921875 " fill-opacity="1" fill-rule="nonzero"/></g><path fill="#000000" d="M 108.636719 257.785156 C 108.085938 257.785156 107.535156 257.574219 107.113281 257.152344 C 106.269531 256.3125 106.269531 254.949219 107.113281 254.109375 L 118.117188 243.101562 C 118.957031 242.261719 120.324219 242.261719 121.164062 243.101562 C 122.003906 243.945312 122.003906 245.308594 121.164062 246.152344 L 110.160156 257.152344 C 109.742188 257.574219 109.1875 257.785156 108.636719 257.785156 " fill-opacity="1" fill-rule="nonzero"/><path fill="#000000" d="M 266.367188 257.785156 C 265.8125 257.785156 265.261719 257.574219 264.839844 257.152344 L 253.835938 246.152344 C 252.996094 245.308594 252.996094 243.945312 253.835938 243.101562 C 254.675781 242.261719 256.042969 242.261719 256.882812 243.101562 L 267.886719 254.109375 C 268.730469 254.949219 268.730469 256.3125 267.886719 257.152344 C 267.46875 257.574219 266.914062 257.785156 266.367188 257.785156 " fill-opacity="1" fill-rule="nonzero"/><g clip-path="url(#59f2ca9810)"><path fill="#000000" d="M 299.03125 178.921875 L 283.46875 178.921875 C 282.277344 178.921875 281.3125 177.957031 281.3125 176.765625 C 281.3125 175.578125 282.277344 174.613281 283.46875 174.613281 L 299.03125 174.613281 C 300.222656 174.613281 301.183594 175.578125 301.183594 176.765625 C 301.183594 177.957031 300.222656 178.921875 299.03125 178.921875 " fill-opacity="1" fill-rule="nonzero"/></g><path fill="#000000" d="M 255.359375 111.0625 C 254.808594 111.0625 254.257812 110.851562 253.835938 110.429688 C 252.996094 109.589844 252.996094 108.226562 253.835938 107.382812 L 264.839844 96.382812 C 265.679688 95.539062 267.046875 95.539062 267.886719 96.382812 C 268.730469 97.222656 268.730469 98.585938 267.886719 99.425781 L 256.882812 110.429688 C 256.464844 110.851562 255.914062 111.0625 255.359375 111.0625 " fill-opacity="1" fill-rule="nonzero"/></svg>