<svg version="1.1" id="Layer_1" xmlns="http://www.w3.org/2000/svg" xmlns:xlink="http://www.w3.org/1999/xlink" x="0px" y="0px"
	 width="100%" viewBox="0 0 496 496" enable-background="new 0 0 496 496" xml:space="preserve">
<path fill="#000000" opacity="1.000000" stroke="none" 
	d="
M343.324310,285.233215 
	C333.856323,302.433746 320.992554,315.888519 304.388184,325.674927 
	C294.410461,331.555695 289.801575,340.822174 287.449890,351.619354 
	C285.601166,360.107208 283.383453,368.447205 278.438812,375.792053 
	C276.558411,378.585205 276.698608,382.122772 277.007355,384.992401 
	C277.509644,389.660278 276.584900,394.256287 277.250031,398.892395 
	C277.890045,403.353729 275.927307,406.734375 271.511047,408.217224 
	C269.792694,408.794189 268.516479,409.745361 267.725983,411.242126 
	C265.030548,416.345917 260.776245,418.007660 255.236786,417.379913 
	C252.933472,417.118927 250.556839,417.141785 248.247040,417.371826 
	C242.290604,417.964996 237.335526,416.769806 234.541092,410.787659 
	C233.889954,409.393768 232.525314,408.701233 231.012726,408.216278 
	C226.003723,406.610443 224.723846,402.628754 224.952713,397.960754 
	C225.258682,391.720093 225.460068,385.490448 224.779160,379.265717 
	C224.671906,378.285248 224.683121,377.135620 224.172699,376.379272 
	C218.140823,367.440948 216.478088,356.979065 213.691422,346.897491 
	C211.507950,338.998077 207.758820,332.210358 200.570312,327.525146 
	C195.265106,324.067383 191.874908,318.843109 189.860107,312.839722 
	C189.152573,310.731506 188.169281,309.594360 185.742538,309.280457 
	C165.479889,306.659119 154.190323,289.135437 160.314651,269.722015 
	C161.191391,266.942932 160.834244,265.405762 158.686905,263.349945 
	C148.020126,253.137726 146.142502,238.089691 153.891357,225.558792 
	C155.126389,223.561615 155.135910,222.228714 154.201721,220.168762 
	C148.536453,207.676651 152.073029,195.730804 163.576782,188.616699 
	C165.873703,187.196243 166.648315,185.598694 166.744736,182.995773 
	C167.392654,165.503662 179.616425,153.530396 197.164948,153.296005 
	C199.640198,153.262970 200.613815,152.446106 201.528839,150.337097 
	C206.385651,139.142654 217.342575,132.857956 227.836075,135.063004 
	C240.414215,137.706100 248.223724,147.304977 248.227341,160.417267 
	C248.245972,228.234741 248.217194,296.052216 248.209488,363.869690 
	C248.209259,365.868774 248.247009,367.868164 248.289688,369.866882 
	C248.328537,371.686066 249.253784,372.577118 251.099457,372.607544 
	C252.991577,372.638672 254.448349,372.137848 254.565643,369.960846 
	C254.664169,368.132507 254.657349,366.297211 254.657425,364.464996 
	C254.660675,289.148865 254.656937,213.832718 254.662537,138.516586 
	C254.663086,131.147644 255.053085,130.818054 262.339600,131.579391 
	C307.220703,136.268890 343.847992,169.268509 353.380035,213.372040 
	C358.804413,238.469986 355.560425,262.273743 343.324310,285.233215 
M280.692627,351.350281 
	C283.363373,337.650146 289.696869,326.511200 302.134460,319.204590 
	C332.913330,301.123016 354.893463,262.256805 347.955078,220.215790 
	C341.249481,179.585632 309.533569,146.327805 269.259735,139.222595 
	C261.290039,137.816574 261.261993,137.816574 261.263458,145.913773 
	C261.276245,216.231705 261.299500,286.549652 261.321350,356.867584 
	C261.322601,360.866577 261.325562,364.865631 261.355286,368.864471 
	C261.366455,370.368927 261.347748,371.844147 263.198242,372.533997 
	C267.775848,374.240417 273.186249,372.249054 275.449615,367.783386 
	C277.951660,362.846741 279.212402,357.484558 280.692627,351.350281 
M207.320251,160.244263 
	C208.551590,169.181549 213.265396,174.061188 222.390823,175.637924 
	C224.849197,176.062698 227.402634,176.527863 226.998718,179.622162 
	C226.570480,182.902832 223.820465,182.987350 221.179367,182.632935 
	C210.621552,181.216202 203.847534,175.128723 200.951828,165.133698 
	C199.630020,160.571198 197.228607,159.827942 193.234116,160.611557 
	C181.281967,162.956284 173.680328,172.144226 174.346725,184.444885 
	C174.616638,189.426880 173.742386,192.456741 168.551208,194.242325 
	C160.893951,196.876129 155.098282,209.463608 161.480927,216.986649 
	C164.373428,215.772766 167.196732,214.315857 170.183182,213.379105 
	C188.586746,207.606567 207.807556,220.975021 208.639908,239.969193 
	C208.748108,242.438522 208.272934,244.531937 205.622375,244.840912 
	C202.842636,245.164948 202.045685,242.971191 201.741394,240.652374 
	C201.654831,239.992844 201.683975,239.316895 201.580536,238.661011 
	C200.001694,228.649078 192.109558,220.640182 182.584854,219.367340 
	C171.734482,217.917358 162.530502,223.110733 158.427322,232.998291 
	C154.426834,242.638412 156.834961,253.183517 165.352661,259.332428 
	C169.927139,262.634766 170.566193,265.225464 168.088852,270.376129 
	C162.055573,282.919983 168.896515,297.499695 181.882950,301.254669 
	C185.708954,302.360931 188.554504,302.469208 189.218262,297.178375 
	C189.802124,292.524597 192.180466,288.347015 195.171692,284.680328 
	C200.373322,278.304077 207.199020,274.793854 215.310532,273.828064 
	C217.827988,273.528320 220.676392,273.487000 221.111481,276.919403 
	C221.522507,280.162201 218.832642,280.503479 216.521500,280.985901 
	C216.033844,281.087738 215.532150,281.126831 215.035324,281.179749 
	C204.180420,282.335785 195.041489,291.871490 195.644440,304.073730 
	C196.294174,317.222778 206.610336,326.020691 219.689423,325.688904 
	C231.046616,325.400818 240.649078,315.701233 240.680908,303.779114 
	C240.809464,255.633362 240.801666,207.487000 240.707932,159.341141 
	C240.688370,149.290863 233.332428,142.202805 223.686417,142.274948 
	C214.407883,142.344330 207.638611,149.427994 207.320251,160.244263 
M220.267883,345.465881 
	C220.726212,347.232635 221.176300,349.001587 221.644394,350.765747 
	C223.302383,357.014771 224.668594,363.324188 227.691483,369.167786 
	C230.331070,374.270416 234.808228,372.780640 238.647095,372.399658 
	C242.237106,372.043396 240.982285,368.493469 241.012619,366.259674 
	C241.161560,355.286896 241.129730,344.311127 241.090942,333.336670 
	C241.079254,330.029327 242.218536,326.659576 240.855438,322.883575 
	C237.496887,326.688599 233.747543,329.082489 229.635208,330.977448 
	C225.569016,332.851135 221.033035,332.867981 216.432083,334.070892 
	C217.723083,337.842438 218.894043,341.263306 220.267883,345.465881 
M269.167389,381.618652 
	C271.065918,378.331604 268.058167,379.422394 266.985260,379.413055 
	C256.523407,379.321564 246.060349,379.342896 235.597855,379.385986 
	C234.572800,379.390228 233.146896,379.035736 232.876999,381.811096 
	C244.798157,381.811096 256.621155,381.811096 269.167389,381.618652 
M260.425568,389.322357 
	C251.232819,389.322357 242.040085,389.322357 232.847336,389.322357 
	C232.867706,389.790009 232.888077,390.257660 232.908447,390.725311 
	C237.419571,392.799988 266.714539,392.520294 270.341064,390.041687 
	C267.190552,388.761444 264.223724,389.577301 260.425568,389.322357 
M249.501831,401.886475 
	C252.995682,401.889648 256.489563,401.883606 259.983368,401.897888 
	C267.724152,401.929535 267.724121,401.933716 269.718719,400.021301 
	C257.458740,400.021301 245.198746,400.021301 232.938751,400.021301 
	C232.933029,400.485596 232.927307,400.949890 232.921585,401.414185 
	C238.052078,402.450470 243.313293,401.678711 249.501831,401.886475 
M257.324097,409.012909 
	C252.326523,409.012909 247.328964,409.012909 242.331390,409.012909 
	C242.336945,409.507416 242.342484,410.001923 242.348022,410.496429 
	C248.168747,410.851013 253.988464,410.899292 259.827545,409.225311 
	C259.225250,409.161255 258.622955,409.097229 257.324097,409.012909 
z"/>
<path fill="#000000" opacity="1.000000" stroke="none" 
	d="
M352.396729,342.749756 
	C348.213165,338.457428 344.254669,334.450562 340.374359,330.369415 
	C338.926941,328.847137 337.858398,327.023315 339.769714,325.159973 
	C341.646271,323.330627 343.503296,324.329773 345.018250,325.791595 
	C349.190216,329.817169 353.287537,333.920563 357.389404,338.018158 
	C359.121826,339.748718 360.659485,341.802185 358.591583,344.045837 
	C356.381805,346.443451 354.424500,344.614319 352.396729,342.749756 
z"/>
<path fill="#000000" opacity="1.000000" stroke="none" 
	d="
M162.794098,325.204163 
	C164.539413,327.578918 163.507431,329.268738 162.023880,330.758911 
	C157.797852,335.003845 153.542694,339.220886 149.239227,343.387115 
	C147.577011,344.996307 145.591782,346.158752 143.630142,343.954468 
	C141.896942,342.006836 143.085510,340.202362 144.558624,338.703247 
	C148.756897,334.430817 153.002350,330.204559 157.243912,325.974854 
	C158.765045,324.458008 160.428391,323.502777 162.794098,325.204163 
z"/>
<path fill="#000000" opacity="1.000000" stroke="none" 
	d="
M147.776291,138.172760 
	C146.266129,136.591156 144.940765,135.323639 143.776642,133.922150 
	C142.753204,132.690002 142.320404,131.198486 143.466843,129.825989 
	C144.736893,128.305496 146.662811,128.147415 147.930466,129.352036 
	C153.102737,134.267105 158.137375,139.333328 163.067093,144.492554 
	C164.185837,145.663376 163.891037,147.428253 162.551208,148.509354 
	C161.044907,149.724823 159.360809,149.452805 158.019089,148.180115 
	C154.643570,144.978348 151.354752,141.685150 147.776291,138.172760 
z"/>
<path fill="#000000" opacity="1.000000" stroke="none" 
	d="
M345.791931,147.031891 
	C343.689972,149.001709 341.578247,150.358765 339.539764,147.999496 
	C337.650909,145.813446 339.493927,144.020203 341.016754,142.471054 
	C344.959198,138.460419 348.936493,134.483887 352.915894,130.509796 
	C354.562683,128.865234 356.589844,127.647301 358.536011,129.568848 
	C360.495239,131.503265 359.270081,133.538330 357.635498,135.187851 
	C353.793182,139.065308 349.923981,142.916168 345.791931,147.031891 
z"/>
<path fill="#000000" opacity="1.000000" stroke="none" 
	d="
M124.935318,239.170959 
	C117.224159,241.183640 109.771332,240.129852 102.357529,240.048569 
	C100.518028,240.028427 99.383484,238.533844 99.427040,236.629456 
	C99.473328,234.605484 100.802330,233.712860 102.725288,233.710205 
	C109.361076,233.701065 116.003662,233.549286 122.629768,233.807724 
	C125.792747,233.931091 127.110558,235.785706 124.935318,239.170959 
z"/>
<path fill="#000000" opacity="1.000000" stroke="none" 
	d="
M254.340347,98.988693 
	C254.331772,102.307320 254.335388,105.133797 254.309845,107.960007 
	C254.291367,110.005791 253.547745,111.734894 251.291840,111.770401 
	C249.133499,111.804359 247.906998,110.149422 247.867416,108.181000 
	C247.733810,101.537003 247.722366,94.886116 247.884918,88.243279 
	C247.934189,86.229889 249.358017,84.798912 251.537521,84.973396 
	C253.540375,85.133743 254.259201,86.675865 254.284454,88.521721 
	C254.329910,91.846260 254.324310,95.171494 254.340347,98.988693 
z"/>
<path fill="#000000" opacity="1.000000" stroke="none" 
	d="
M396.786285,233.654968 
	C399.674255,233.814499 402.984650,233.169418 402.981415,236.755646 
	C402.978058,240.476578 399.613953,240.236877 396.966705,240.266876 
	C391.802460,240.325394 386.636719,240.303925 381.472076,240.259186 
	C379.005096,240.237823 376.437958,239.814865 376.507629,236.688019 
	C376.572479,233.777054 379.041565,233.654312 381.316772,233.660172 
	C386.315125,233.673080 391.313568,233.657928 396.786285,233.654968 
z"/>
<path fill="#000000" opacity="1.000000" stroke="none" 
	d="
M297.250610,155.649536 
	C308.547913,162.130951 317.534454,170.656403 325.245361,180.604126 
	C325.956970,181.522171 326.629150,182.474655 327.264099,183.447388 
	C328.347961,185.107849 328.903473,186.888168 327.095978,188.342865 
	C325.030273,190.005432 323.265289,188.894821 322.000977,187.155960 
	C318.377991,182.173279 314.608185,177.321396 310.038605,173.165115 
	C302.859924,166.635742 294.953125,161.190735 285.995331,157.355164 
	C285.079285,156.962952 284.145233,156.602524 283.263184,156.143478 
	C281.321533,155.132996 279.889282,153.679504 280.952362,151.371964 
	C281.918549,149.274643 283.924438,149.354095 285.694244,150.135071 
	C289.486298,151.808380 293.193146,153.674866 297.250610,155.649536 
z"/>
</svg>